M48
; DRILL file {KiCad (6.0.4-0)} date 2022 May 31, Tuesday 11:41:48
; FORMAT={-:-/ absolute / inch / decimal}
; #@! TF.CreationDate,2022-05-31T11:41:48+03:00
; #@! TF.GenerationSoftware,Kicad,Pcbnew,(6.0.4-0)
; #@! TF.FileFunction,NonPlated,1,2,NPTH
FMAT,2
INCH
; #@! TA.AperFunction,NonPlated,NPTH,ComponentDrill
T1C0.0256
; #@! TA.AperFunction,NonPlated,NPTH,ComponentDrill
T2C0.0669
; #@! TA.AperFunction,NonPlated,NPTH,ComponentDrill
T3C0.1161
; #@! TA.AperFunction,NonPlated,NPTH,ComponentDrill
T4C0.1181
; #@! TA.AperFunction,NonPlated,NPTH,ComponentDrill
T5C0.1200
; #@! TA.AperFunction,NonPlated,NPTH,ComponentDrill
T6C0.1201
; #@! TA.AperFunction,NonPlated,NPTH,ComponentDrill
T7C0.1570
; #@! TA.AperFunction,NonPlated,NPTH,ComponentDrill
T8C0.1575
%
G90
G05
T1
X5.7925Y-1.3353
X6.02Y-1.3353
T2
X1.3938Y-1.5
X1.3938Y-2.4375
X1.4875Y-3.9375
X1.4875Y-4.6875
X1.5813Y-3.1875
X1.5813Y-5.4375
X1.675Y-3.9375
X1.7937Y-1.5
X1.7937Y-2.4375
X1.8625Y-4.6875
X1.8875Y-3.9375
X1.8875Y-4.6875
X1.9812Y-3.1875
X1.9812Y-5.4375
X2.075Y-3.9375
X2.1437Y-2.4375
X2.2625Y-4.6875
X2.3312Y-4.6875
X2.5187Y-3.1875
X2.5187Y-5.4375
X2.5437Y-2.4375
X2.7062Y-3.9375
X2.7312Y-4.6875
X2.8937Y-1.5
X2.8937Y-2.4375
X2.9187Y-3.1875
X2.9187Y-5.4375
X3.0812Y-4.6875
X3.1062Y-3.9375
X3.2687Y-3.1875
X3.2937Y-1.5
X3.2937Y-2.4375
X3.4562Y-3.9375
X3.4562Y-5.4375
X3.4812Y-4.6875
X3.6437Y-1.5
X3.6437Y-2.4375
X3.6687Y-3.1875
X3.8312Y-4.6875
X3.8562Y-3.9375
X3.8562Y-5.4375
X4.0187Y-3.1875
X4.0438Y-1.5
X4.0438Y-2.4375
X4.2062Y-3.9375
X4.2313Y-4.6875
X4.3937Y-1.5
X4.3937Y-2.4375
X4.3937Y-5.4375
X4.4188Y-3.1875
X4.5812Y-4.6875
X4.6063Y-3.9375
X4.7687Y-3.1875
X4.7938Y-1.5
X4.7938Y-2.4375
X4.7938Y-5.4375
X4.9562Y-3.9375
X4.9813Y-4.6875
X5.1437Y-1.5
X5.1437Y-2.4375
X5.1688Y-3.1875
X5.3312Y-4.6875
X5.3563Y-3.9375
X5.5187Y-3.1875
X5.5438Y-1.5
X5.5438Y-2.4375
X5.6125Y-5.4375
X5.7062Y-3.9375
X5.7313Y-4.6875
X5.8937Y-2.4375
X5.9188Y-3.1875
X6.0125Y-5.4375
X6.0812Y-4.6875
X6.1063Y-3.9375
X6.2687Y-1.5
X6.2687Y-3.1875
X6.2938Y-2.4375
X6.4562Y-3.9375
X6.4813Y-4.6875
X6.6437Y-2.4375
X6.6437Y-5.4375
X6.6688Y-1.5
X6.6688Y-3.1875
X6.8312Y-4.6875
X6.8563Y-3.9375
X7.0187Y-1.5
X7.0187Y-3.1875
X7.0438Y-2.4375
X7.0438Y-5.4375
X7.2062Y-3.9375
X7.2313Y-4.6875
X7.3937Y-2.4375
X7.4188Y-1.5
X7.4188Y-3.1875
X7.4875Y-5.4375
X7.5812Y-4.6875
X7.6063Y-3.9375
X7.7687Y-1.5
X7.7687Y-3.1875
X7.7938Y-2.4375
X7.8875Y-5.4375
X7.9562Y-3.9375
X7.9813Y-4.6875
X8.1437Y-2.4375
X8.1687Y-1.5
X8.1687Y-3.1875
X8.3312Y-4.6875
X8.3562Y-3.9375
X8.5187Y-1.5
X8.5187Y-3.1875
X8.5437Y-2.4375
X8.7062Y-3.9375
X8.7312Y-4.6875
X8.8937Y-2.4375
X8.8937Y-5.4375
X8.9187Y-1.5
X8.9187Y-3.1875
X9.0812Y-4.6875
X9.1062Y-3.9375
X9.2687Y-3.1875
X9.2937Y-2.4375
X9.2937Y-5.4375
X9.4562Y-3.9375
X9.4812Y-4.6875
X9.6437Y-1.5
X9.6437Y-2.4375
X9.6687Y-3.1875
X9.8312Y-4.6875
X9.8312Y-5.4375
X9.8562Y-3.9375
X10.0187Y-3.1875
X10.0437Y-1.5
X10.0437Y-2.4375
X10.2062Y-3.9375
X10.2312Y-4.6875
X10.2312Y-5.4375
X10.3937Y-1.5
X10.3937Y-2.4375
X10.4187Y-3.1875
X10.6062Y-3.9375
X10.7687Y-3.1875
X10.7687Y-5.4375
X10.7937Y-1.5
X10.7937Y-2.4375
X10.8625Y-4.6875
X11.1437Y-1.5
X11.1437Y-2.4375
X11.1562Y-3.7375
X11.1562Y-4.1375
X11.1687Y-3.1875
X11.1687Y-5.4375
X11.2375Y-4.6875
X11.2625Y-4.6875
X11.5437Y-1.5
X11.5437Y-2.4375
X11.625Y-3.7375
X11.625Y-4.1375
X11.6375Y-4.6875
X11.7062Y-5.4375
X11.8937Y-1.5
X11.8937Y-2.4375
X11.8937Y-4.6875
X11.9062Y-2.9875
X11.9062Y-3.3875
X12.0Y-3.3627
X12.0Y-3.7627
X12.1062Y-5.4375
X12.2937Y-1.5
X12.2937Y-2.4375
X12.2937Y-4.6875
X12.8312Y-1.5
X12.8312Y-2.4375
X12.8312Y-3.1875
X12.8312Y-5.4375
X13.2312Y-1.5
X13.2312Y-2.4375
X13.2312Y-3.1875
X13.2312Y-5.4375
X13.5812Y-1.5
X13.5812Y-2.4375
X13.5812Y-3.1875
X13.5812Y-4.6875
X13.5812Y-5.4375
X13.9812Y-1.5
X13.9812Y-2.4375
X13.9812Y-3.1875
X13.9812Y-4.6875
X13.9812Y-5.4375
X14.3312Y-1.5
X14.3312Y-2.4375
X14.3312Y-3.1875
X14.3312Y-5.4375
X14.7312Y-1.5
X14.7312Y-2.4375
X14.7312Y-3.1875
X14.7312Y-5.4375
T3
X1.5375Y-3.8375
X1.5875Y-4.8875
X1.6312Y-3.0875
X1.6312Y-5.3375
X1.775Y-4.1375
X1.7875Y-3.7375
X1.8375Y-4.7875
X1.8812Y-2.9875
X1.8812Y-5.2375
X1.9125Y-4.5875
X2.025Y-4.0375
X2.1625Y-4.4875
X3.5063Y-5.3375
X3.7563Y-5.2375
X9.8812Y-5.3375
X10.1312Y-5.2375
X11.5687Y-2.3375
X11.7562Y-5.3375
X11.8187Y-2.2375
X12.0062Y-3.0375
X12.0062Y-5.2375
X12.1062Y-3.2875
T4
X1.4437Y-1.4
X1.4437Y-2.3375
X1.6937Y-1.3
X1.6937Y-2.2375
X2.1938Y-2.3375
X2.4312Y-4.8875
X2.4438Y-2.2375
X2.5688Y-3.0875
X2.5688Y-5.3375
X2.6812Y-4.7875
X2.7563Y-3.8375
X2.8188Y-2.9875
X2.8188Y-5.2375
X2.9438Y-1.4
X2.9438Y-2.3375
X3.0063Y-3.7375
X3.1313Y-4.5875
X3.1938Y-1.3
X3.1938Y-2.2375
X3.3188Y-3.0875
X3.3813Y-4.4875
X3.5063Y-3.8375
X3.5688Y-2.9875
X3.6938Y-1.4
X3.6938Y-2.3375
X3.7563Y-3.7375
X3.8813Y-4.5875
X3.9438Y-1.3
X3.9438Y-2.2375
X4.0687Y-3.0875
X4.1312Y-4.4875
X4.2562Y-3.8375
X4.3187Y-2.9875
X4.4437Y-1.4
X4.4437Y-2.3375
X4.4437Y-5.3375
X4.5062Y-3.7375
X4.6312Y-4.5875
X4.6937Y-1.3
X4.6937Y-2.2375
X4.6937Y-5.2375
X4.8187Y-3.0875
X4.8812Y-4.4875
X5.0062Y-3.8375
X5.0687Y-2.9875
X5.1937Y-1.4
X5.1937Y-2.3375
X5.2562Y-3.7375
X5.3812Y-4.5875
X5.4437Y-1.3
X5.4437Y-2.2375
X5.5687Y-3.0875
X5.6312Y-4.4875
X5.6625Y-5.3375
X5.7562Y-3.8375
X5.8187Y-2.9875
X5.9125Y-5.2375
X5.9437Y-2.3375
X6.0062Y-3.7375
X6.1312Y-4.5875
X6.1937Y-2.2375
X6.3187Y-1.4
X6.3187Y-3.0875
X6.3812Y-4.4875
X6.5062Y-3.8375
X6.5687Y-1.3
X6.5687Y-2.9875
X6.6937Y-2.3375
X6.6937Y-5.3375
X6.7562Y-3.7375
X6.8812Y-4.5875
X6.9437Y-2.2375
X6.9437Y-5.2375
X7.0687Y-1.4
X7.0687Y-3.0875
X7.1312Y-4.4875
X7.2562Y-3.8375
X7.3187Y-1.3
X7.3187Y-2.9875
X7.4437Y-2.3375
X7.5062Y-3.7375
X7.5375Y-5.3375
X7.6312Y-4.5875
X7.6937Y-2.2375
X7.7875Y-5.2375
X7.8187Y-1.4
X7.8187Y-3.0875
X7.8812Y-4.4875
X8.0062Y-3.8375
X8.0687Y-1.3
X8.0687Y-2.9875
X8.1937Y-2.3375
X8.2562Y-3.7375
X8.3812Y-4.5875
X8.4437Y-2.2375
X8.5687Y-1.4
X8.5687Y-3.0875
X8.6312Y-4.4875
X8.7562Y-3.8375
X8.8187Y-1.3
X8.8187Y-2.9875
X8.9437Y-2.3375
X8.9437Y-5.3375
X9.0062Y-3.7375
X9.1312Y-4.5875
X9.1937Y-2.2375
X9.1937Y-5.2375
X9.3187Y-3.0875
X9.3812Y-4.4875
X9.5062Y-3.8375
X9.5687Y-2.9875
X9.6937Y-1.4
X9.6937Y-2.3375
X9.7562Y-3.7375
X9.8812Y-4.5875
X9.9437Y-1.3
X9.9437Y-2.2375
X10.0687Y-3.0875
X10.1312Y-4.4875
X10.2562Y-3.8375
X10.3187Y-2.9875
X10.4437Y-1.4
X10.4437Y-2.3375
X10.5062Y-3.7375
X10.6937Y-1.3
X10.6937Y-2.2375
X10.8187Y-3.0875
X10.8187Y-5.3375
X10.9125Y-4.5875
X10.9562Y-3.8375
X11.0563Y-4.0875
X11.0687Y-2.9875
X11.0687Y-5.2375
X11.1625Y-4.4875
X11.1937Y-1.4
X11.2438Y-2.6375
X11.3375Y-4.8875
X11.425Y-3.8375
X11.4437Y-1.3
X11.4938Y-2.5375
X11.525Y-4.0875
X11.5875Y-4.7875
X11.8Y-3.4627
X11.9Y-3.7127
X11.9437Y-1.4
X11.9437Y-4.5875
X11.9938Y-2.6375
X12.1937Y-1.3
X12.1937Y-4.4875
X12.2438Y-2.5375
X12.8812Y-1.4
X12.8812Y-2.3375
X12.8812Y-3.0875
X12.8812Y-5.3375
X13.1312Y-1.3
X13.1312Y-2.2375
X13.1312Y-2.9875
X13.1312Y-5.2375
X13.6312Y-1.4
X13.6312Y-2.3375
X13.6312Y-3.0875
X13.6312Y-4.5875
X13.6312Y-5.3375
X13.8812Y-1.3
X13.8812Y-2.2375
X13.8812Y-2.9875
X13.8812Y-4.4875
X13.8812Y-5.2375
X14.3812Y-1.4
X14.3812Y-2.3375
X14.3812Y-3.0875
X14.3812Y-5.3375
X14.6312Y-1.3
X14.6312Y-2.2375
X14.6312Y-2.9875
X14.6312Y-5.2375
T5
X5.3425Y-5.7125
X6.2825Y-5.7125
X7.2175Y-5.7125
X8.1575Y-5.7125
X10.9675Y-4.9625
X11.155Y-4.2125
X11.2487Y-2.1625
X11.9075Y-4.9625
X12.095Y-4.2125
X12.1887Y-2.1625
T6
X1.594Y-4.4119
X2.531Y-4.4119
X4.5938Y-5.7131
X9.0938Y-5.7131
X11.7244Y-3.0942
X11.7244Y-4.0312
T7
X5.3425Y-5.1125
X6.2825Y-5.1125
X7.2175Y-5.1125
X8.1575Y-5.1125
X10.9675Y-4.3625
X11.155Y-3.6125
X11.2487Y-2.7625
X11.9075Y-4.3625
X12.095Y-3.6125
X12.1887Y-2.7625
T8
X1.5938Y-1.5
X1.5938Y-2.4375
X1.594Y-5.0119
X1.6875Y-3.9375
X1.6875Y-4.6875
X1.7812Y-3.1875
X1.7812Y-5.4375
X1.875Y-3.9375
X2.0625Y-4.6875
X2.3438Y-2.4375
X2.531Y-5.0119
X2.5312Y-4.6875
X2.7188Y-3.1875
X2.7188Y-5.4375
X2.9062Y-3.9375
X3.0938Y-1.5
X3.0938Y-2.4375
X3.2812Y-4.6875
X3.4688Y-3.1875
X3.6562Y-3.9375
X3.6562Y-5.4375
X3.8438Y-1.5
X3.8438Y-2.4375
X4.0312Y-4.6875
X4.2188Y-3.1875
X4.4062Y-3.9375
X4.5938Y-1.5
X4.5938Y-2.4375
X4.5938Y-5.1131
X4.5938Y-5.4375
X4.7812Y-4.6875
X4.9688Y-3.1875
X5.1562Y-3.9375
X5.3438Y-1.5
X5.3438Y-2.4375
X5.5312Y-4.6875
X5.7188Y-3.1875
X5.8125Y-5.4375
X5.9062Y-3.9375
X6.0938Y-2.4375
X6.2812Y-4.6875
X6.4688Y-1.5
X6.4688Y-3.1875
X6.6562Y-3.9375
X6.8438Y-2.4375
X6.8438Y-5.4375
X7.0312Y-4.6875
X7.2188Y-1.5
X7.2188Y-3.1875
X7.4062Y-3.9375
X7.5938Y-2.4375
X7.6875Y-5.4375
X7.7812Y-4.6875
X7.9688Y-1.5
X7.9688Y-3.1875
X8.1562Y-3.9375
X8.3438Y-2.4375
X8.5312Y-4.6875
X8.7188Y-1.5
X8.7188Y-3.1875
X8.9062Y-3.9375
X9.0938Y-2.4375
X9.0938Y-5.1131
X9.0938Y-5.4375
X9.2812Y-4.6875
X9.4688Y-3.1875
X9.6562Y-3.9375
X9.8438Y-1.5
X9.8438Y-2.4375
X10.0312Y-4.6875
X10.0312Y-5.4375
X10.2188Y-3.1875
X10.4062Y-3.9375
X10.5938Y-1.5
X10.5938Y-2.4375
X10.9688Y-3.1875
X10.9688Y-5.4375
X11.0625Y-4.6875
X11.1562Y-3.9375
X11.3438Y-1.5
X11.3438Y-2.4375
X11.4375Y-4.6875
X11.625Y-3.9375
X11.7188Y-2.4375
X11.9062Y-3.1875
X11.9062Y-5.4375
X12.0Y-3.5627
X12.0938Y-1.5
X12.0938Y-2.4375
X12.0938Y-4.6875
X12.3244Y-3.0942
X12.3244Y-4.0312
X13.0312Y-1.5
X13.0312Y-2.4375
X13.0312Y-3.1875
X13.0312Y-5.4375
X13.7812Y-1.5
X13.7812Y-2.4375
X13.7812Y-3.1875
X13.7812Y-4.6875
X13.7812Y-5.4375
X14.5312Y-1.5
X14.5312Y-2.4375
X14.5312Y-3.1875
X14.5312Y-5.4375
T0
M30
