M48
; DRILL file {KiCad (6.0.4-0)} date 2022 May 31, Tuesday 11:41:48
; FORMAT={-:-/ absolute / inch / decimal}
; #@! TF.CreationDate,2022-05-31T11:41:48+03:00
; #@! TF.GenerationSoftware,Kicad,Pcbnew,(6.0.4-0)
; #@! TF.FileFunction,Plated,1,2,PTH
FMAT,2
INCH
; #@! TA.AperFunction,Plated,PTH,ViaDrill
T1C0.0157
; #@! TA.AperFunction,Plated,PTH,ComponentDrill
T2C0.0236
; #@! TA.AperFunction,Plated,PTH,ComponentDrill
T3C0.0394
; #@! TA.AperFunction,Plated,PTH,ComponentDrill
T4C0.0591
%
G90
G05
T1
X1.2656Y-1.2188
X1.2656Y-1.5
X1.2656Y-1.7188
X1.2656Y-1.9688
X1.2656Y-2.2188
X1.2656Y-2.4688
X1.2656Y-2.7188
X1.2656Y-2.9688
X1.2656Y-3.2188
X1.2656Y-3.4688
X1.2656Y-3.7188
X1.2656Y-3.9688
X1.2656Y-4.2188
X1.2656Y-4.4688
X1.2656Y-4.7188
X1.2656Y-4.9688
X1.2656Y-5.2188
X1.2656Y-5.4688
X1.2656Y-5.7188
X1.3125Y-1.1719
X1.3125Y-5.7656
X1.3977Y-4.244
X1.5625Y-1.1719
X1.5625Y-5.7656
X1.5938Y-1.7
X1.5938Y-1.885
X1.7388Y-2.025
X1.8125Y-1.1719
X1.8125Y-5.7656
X1.9888Y-2.125
X2.0625Y-1.1719
X2.0625Y-5.7656
X2.2388Y-1.885
X2.3125Y-1.1719
X2.3125Y-5.7656
X2.4187Y-4.375
X2.5625Y-1.1719
X2.5625Y-5.7656
X2.7188Y-2.195
X2.8125Y-1.1719
X2.8125Y-5.7656
X2.9087Y-4.74
X3.0187Y-4.375
X3.0625Y-1.1719
X3.0625Y-5.7656
X3.0938Y-2.9062
X3.3125Y-1.1719
X3.3125Y-5.7656
X3.4688Y-1.875
X3.4888Y-2.125
X3.5437Y-4.245
X3.5625Y-1.1719
X3.5625Y-5.7656
X3.8125Y-1.1719
X3.8125Y-5.7656
X4.0625Y-1.1719
X4.0625Y-5.7656
X4.2088Y-2.235
X4.2188Y-1.875
X4.2938Y-4.245
X4.3125Y-1.1719
X4.3125Y-5.7656
X4.5187Y-4.885
X4.5187Y-4.975
X4.5625Y-1.1719
X4.5938Y-2.9062
X4.7812Y-4.0312
X4.8125Y-1.1719
X4.8125Y-5.7656
X4.9688Y-1.875
X4.9887Y-2.125
X5.0438Y-4.245
X5.0625Y-1.1719
X5.0625Y-5.7656
X5.3125Y-1.1719
X5.5625Y-1.1719
X5.5625Y-5.7656
X5.6987Y-2.265
X5.6997Y-1.513
X5.7188Y-1.685
X5.7188Y-1.7525
X5.7188Y-1.875
X5.7938Y-4.245
X5.7988Y-1.6505
X5.8125Y-5.7656
X5.8157Y-1.587
X5.8389Y-1.8249
X5.8687Y-4.8845
X5.9062Y-4.7812
X6.0297Y-1.533
X6.0625Y-5.7656
X6.0687Y-5.025
X6.0938Y-1.685
X6.0938Y-1.7525
X6.0938Y-2.9062
X6.1387Y-1.875
X6.2787Y-5.43
X6.2812Y-3.9375
X6.3125Y-1.1719
X6.4688Y-1.875
X6.4688Y-5.075
X6.4887Y-2.125
X6.5438Y-4.245
X6.5625Y-1.1719
X6.5625Y-5.7656
X6.8125Y-1.1719
X6.8125Y-5.7656
X7.0625Y-1.1719
X7.0625Y-5.7656
X7.2188Y-1.875
X7.2188Y-2.225
X7.2938Y-4.245
X7.3125Y-1.1719
X7.3125Y-5.7656
X7.4062Y-4.5
X7.4062Y-5.0625
X7.4062Y-5.5312
X7.5625Y-1.1719
X7.5625Y-5.7656
X7.5938Y-2.9062
X7.7437Y-5.05
X7.7812Y-3.9375
X7.8125Y-1.1719
X7.8125Y-5.7656
X7.9887Y-2.125
X8.0437Y-4.245
X8.0625Y-1.1719
X8.0625Y-5.7656
X8.0687Y-1.875
X8.1487Y-5.525
X8.3125Y-1.1719
X8.3125Y-5.7656
X8.4187Y-5.1
X8.5312Y-5.3438
X8.5625Y-1.1719
X8.5625Y-5.7656
X8.7188Y-2.285
X8.7188Y-5.1562
X8.7287Y-1.875
X8.7937Y-4.245
X8.8125Y-1.1719
X8.8125Y-5.7656
X9.0625Y-1.1719
X9.0938Y-2.9062
X9.2188Y-5.06
X9.2812Y-3.9375
X9.3125Y-1.1719
X9.3125Y-5.7656
X9.4187Y-5.1
X9.4688Y-1.875
X9.4887Y-2.125
X9.5625Y-1.1719
X9.5625Y-5.7656
X9.8125Y-1.1719
X9.8125Y-5.7656
X10.0625Y-1.1719
X10.0625Y-5.7656
X10.2188Y-1.875
X10.2188Y-2.285
X10.271Y-5.1227
X10.3125Y-1.1719
X10.3125Y-5.7656
X10.4087Y-4.74
X10.5Y-5.1562
X10.5Y-5.5312
X10.5625Y-1.1719
X10.5625Y-5.7656
X10.5938Y-2.9062
X10.6107Y-4.645
X10.7568Y-4.689
X10.7788Y-4.932
X10.8087Y-4.19
X10.8125Y-1.1719
X10.8125Y-5.7656
X10.8187Y-4.012
X10.8187Y-4.882
X10.8407Y-4.3
X10.8588Y-3.872
X10.8588Y-4.842
X10.9187Y-4.142
X10.9688Y-1.875
X10.9887Y-2.125
X11.0625Y-1.1719
X11.0625Y-5.7656
X11.0887Y-4.342
X11.2888Y-4.282
X11.3125Y-1.1719
X11.3125Y-5.7656
X11.3187Y-3.852
X11.4387Y-4.305
X11.4667Y-4.879
X11.4787Y-4.542
X11.5089Y-3.2541
X11.5288Y-4.392
X11.5384Y-3.6711
X11.5625Y-1.1719
X11.5625Y-5.7656
X11.6047Y-4.903
X11.6887Y-4.292
X11.7788Y-4.392
X11.7959Y-3.6778
X11.8125Y-1.1719
X11.8125Y-5.7656
X11.8526Y-2.8573
X12.0625Y-1.1719
X12.0625Y-5.7656
X12.0687Y-1.875
X12.1188Y-4.942
X12.1487Y-4.972
X12.15Y-2.5875
X12.1787Y-5.002
X12.1875Y-3.9384
X12.2387Y-5.195
X12.2662Y-5.2375
X12.3087Y-2.885
X12.3125Y-1.1719
X12.3125Y-5.7656
X12.3387Y-3.725
X12.3835Y-2.165
X12.3987Y-3.785
X12.4238Y-4.5
X12.4287Y-1.895
X12.4287Y-3.275
X12.4383Y-2.245
X12.4688Y-2.205
X12.4688Y-2.69
X12.4688Y-2.8125
X12.4688Y-3.5625
X12.4688Y-3.8
X12.4787Y-4.885
X12.5307Y-3.831
X12.5625Y-1.1719
X12.5625Y-5.7656
X12.5687Y-4.005
X12.5687Y-5.625
X12.6037Y-2.291
X12.6037Y-2.495
X12.6037Y-2.751
X12.6037Y-3.177
X12.6037Y-3.491
X12.6067Y-1.801
X12.6348Y-4.189
X12.6387Y-3.755
X12.6562Y-5.5312
X12.6587Y-4.085
X12.6937Y-4.445
X12.6988Y-2.5881
X12.6988Y-2.905
X12.6988Y-2.98
X12.7016Y-3.951
X12.7018Y-4.159
X12.7088Y-4.285
X12.7188Y-2.755
X12.7287Y-2.87
X12.7438Y-3.77
X12.75Y-2.8125
X12.7538Y-3.335
X12.7687Y-4.575
X12.7698Y-2.69
X12.7788Y-3.52
X12.8087Y-4.12
X12.8125Y-1.1719
X12.8125Y-5.7656
X12.8436Y-4.1522
X12.8537Y-2.98
X12.8607Y-3.872
X12.8788Y-4.185
X12.8837Y-4.0
X12.8957Y-3.833
X12.8967Y-4.0868
X12.8967Y-3.44
X12.9018Y-2.5226
X12.9138Y-4.865
X12.9337Y-2.87
X12.9387Y-4.515
X12.9637Y-2.905
X12.9737Y-4.155
X12.9748Y-4.46
X12.9838Y-4.055
X13.0328Y-4.419
X13.0578Y-3.951
X13.0625Y-1.1719
X13.0625Y-5.7656
X13.0627Y-3.787
X13.0787Y-4.045
X13.0787Y-4.155
X13.0838Y-1.965
X13.0838Y-3.715
X13.1288Y-3.965
X13.1738Y-3.51
X13.1787Y-4.62
X13.2207Y-3.743
X13.2468Y-4.14
X13.3067Y-4.94
X13.3125Y-1.1719
X13.3125Y-5.7656
X13.3187Y-2.635
X13.3187Y-3.085
X13.3387Y-4.105
X13.3887Y-2.77
X13.3887Y-2.855
X13.4287Y-4.195
X13.4627Y-3.675
X13.4915Y-2.635
X13.5Y-2.7188
X13.5587Y-3.701
X13.5625Y-1.1719
X13.5625Y-5.7656
X13.5887Y-3.941
X13.5938Y-1.6875
X13.5938Y-1.875
X13.5987Y-3.689
X13.6875Y-3.5625
X13.8125Y-1.1719
X13.8125Y-5.7656
X13.8487Y-1.965
X13.8987Y-4.175
X13.9287Y-1.965
X13.9688Y-3.4688
X14.0625Y-1.1719
X14.0625Y-5.7656
X14.0787Y-4.125
X14.1188Y-5.085
X14.3125Y-1.1719
X14.3125Y-5.7656
X14.3688Y-1.875
X14.5625Y-1.1719
X14.5625Y-5.7656
X14.8125Y-1.1719
X14.8125Y-5.7656
X14.8594Y-1.2188
X14.8594Y-1.4688
X14.8594Y-1.7188
X14.8594Y-1.9688
X14.8594Y-2.2188
X14.8594Y-2.4688
X14.8594Y-2.7188
X14.8594Y-2.9688
X14.8594Y-3.2188
X14.8594Y-3.4688
X14.8594Y-3.7188
X14.8594Y-3.9688
X14.8594Y-4.2188
X14.8594Y-4.4688
X14.8594Y-4.7188
X14.8594Y-4.9688
X14.8594Y-5.2188
X14.8594Y-5.4688
X14.8594Y-5.7188
T2
X1.304Y-1.4
X1.304Y-2.3375
X1.3977Y-3.8375
X1.4477Y-4.8875
X1.4915Y-3.0875
X1.4915Y-5.3375
X1.6352Y-4.1375
X1.7727Y-4.5875
X1.8335Y-1.3
X1.8335Y-2.2375
X1.9273Y-3.7375
X1.9773Y-4.7875
X2.021Y-2.9875
X2.021Y-5.2375
X2.054Y-2.3375
X2.1648Y-4.0375
X2.2915Y-4.8875
X2.3023Y-4.4875
X2.429Y-3.0875
X2.429Y-5.3375
X2.5835Y-2.2375
X2.6165Y-3.8375
X2.804Y-1.4
X2.804Y-2.3375
X2.821Y-4.7875
X2.9585Y-2.9875
X2.9585Y-5.2375
X2.9915Y-4.5875
X3.146Y-3.7375
X3.179Y-3.0875
X3.3335Y-1.3
X3.3335Y-2.2375
X3.3665Y-3.8375
X3.3665Y-5.3375
X3.521Y-4.4875
X3.554Y-1.4
X3.554Y-2.3375
X3.7085Y-2.9875
X3.7415Y-4.5875
X3.896Y-3.7375
X3.896Y-5.2375
X3.929Y-3.0875
X4.0835Y-1.3
X4.0835Y-2.2375
X4.1165Y-3.8375
X4.271Y-4.4875
X4.304Y-1.4
X4.304Y-2.3375
X4.304Y-5.3375
X4.4585Y-2.9875
X4.4915Y-4.5875
X4.646Y-3.7375
X4.679Y-3.0875
X4.8335Y-1.3
X4.8335Y-2.2375
X4.8335Y-5.2375
X4.8665Y-3.8375
X5.021Y-4.4875
X5.054Y-1.4
X5.054Y-2.3375
X5.2085Y-2.9875
X5.2415Y-4.5875
X5.396Y-3.7375
X5.429Y-3.0875
X5.5227Y-5.3375
X5.5835Y-1.3
X5.5835Y-2.2375
X5.6165Y-3.8375
X5.771Y-4.4875
X5.804Y-2.3375
X5.9585Y-2.9875
X5.9915Y-4.5875
X6.0523Y-5.2375
X6.146Y-3.7375
X6.179Y-1.4
X6.179Y-3.0875
X6.3335Y-2.2375
X6.3665Y-3.8375
X6.521Y-4.4875
X6.554Y-2.3375
X6.554Y-5.3375
X6.7085Y-1.3
X6.7085Y-2.9875
X6.7415Y-4.5875
X6.896Y-3.7375
X6.929Y-1.4
X6.929Y-3.0875
X7.0835Y-2.2375
X7.0835Y-5.2375
X7.1165Y-3.8375
X7.271Y-4.4875
X7.304Y-2.3375
X7.3977Y-5.3375
X7.4585Y-1.3
X7.4585Y-2.9875
X7.4915Y-4.5875
X7.646Y-3.7375
X7.679Y-1.4
X7.679Y-3.0875
X7.8335Y-2.2375
X7.8665Y-3.8375
X7.9273Y-5.2375
X8.021Y-4.4875
X8.054Y-2.3375
X8.2085Y-1.3
X8.2085Y-2.9875
X8.2415Y-4.5875
X8.396Y-3.7375
X8.429Y-1.4
X8.429Y-3.0875
X8.5835Y-2.2375
X8.6165Y-3.8375
X8.771Y-4.4875
X8.804Y-2.3375
X8.804Y-5.3375
X8.9585Y-1.3
X8.9585Y-2.9875
X8.9915Y-4.5875
X9.146Y-3.7375
X9.179Y-3.0875
X9.3335Y-2.2375
X9.3335Y-5.2375
X9.3665Y-3.8375
X9.521Y-4.4875
X9.554Y-1.4
X9.554Y-2.3375
X9.7085Y-2.9875
X9.7415Y-4.5875
X9.7415Y-5.3375
X9.896Y-3.7375
X9.929Y-3.0875
X10.0835Y-1.3
X10.0835Y-2.2375
X10.1165Y-3.8375
X10.271Y-4.4875
X10.271Y-5.2375
X10.304Y-1.4
X10.304Y-2.3375
X10.4585Y-2.9875
X10.646Y-3.7375
X10.679Y-3.0875
X10.679Y-5.3375
X10.7727Y-4.5875
X10.8335Y-1.3
X10.8335Y-2.2375
X10.9562Y-3.6977
X11.054Y-1.4
X11.0563Y-4.2273
X11.104Y-2.6375
X11.1977Y-4.8875
X11.2085Y-2.9875
X11.2085Y-5.2375
X11.3023Y-4.4875
X11.425Y-3.6977
X11.429Y-2.3375
X11.525Y-4.2273
X11.5835Y-1.3
X11.6165Y-5.3375
X11.6335Y-2.5375
X11.7273Y-4.7875
X11.8Y-3.323
X11.804Y-1.4
X11.804Y-4.5875
X11.854Y-2.6375
X11.9Y-3.8525
X11.9585Y-2.2375
X12.0062Y-2.8977
X12.1062Y-3.4273
X12.146Y-5.2375
X12.3335Y-1.3
X12.3335Y-4.4875
X12.3835Y-2.5375
X12.7415Y-1.4
X12.7415Y-2.3375
X12.7415Y-3.0875
X12.7415Y-5.3375
X13.271Y-1.3
X13.271Y-2.2375
X13.271Y-2.9875
X13.271Y-5.2375
X13.4915Y-1.4
X13.4915Y-2.3375
X13.4915Y-3.0875
X13.4915Y-4.5875
X13.4915Y-5.3375
X14.021Y-1.3
X14.021Y-2.2375
X14.021Y-2.9875
X14.021Y-4.4875
X14.021Y-5.2375
X14.2415Y-1.4
X14.2415Y-2.3375
X14.2415Y-3.0875
X14.2415Y-5.3375
X14.771Y-1.3
X14.771Y-2.2375
X14.771Y-2.9875
X14.771Y-5.2375
T3
X1.4953Y-1.2246
X1.4953Y-1.7954
X1.5938Y-1.7954
X1.6922Y-1.2246
X1.6922Y-1.7954
X12.826Y-3.6923
X12.8967Y-3.6216
X12.8967Y-3.763
X12.9675Y-3.5509
X12.9675Y-3.6923
X13.0382Y-3.6216
T2
G00X5.7362Y-1.1798
M15
G01X5.7362Y-1.2034
M16
G05
G00X5.7362Y-1.3345
M15
G01X5.7362Y-1.3778
M16
G05
G00X6.0763Y-1.1798
M15
G01X6.0763Y-1.2034
M16
G05
G00X6.0763Y-1.3345
M15
G01X6.0763Y-1.3778
M16
G05
T4
G00X1.3733Y-1.5257
M15
G01X1.3733Y-1.4746
M16
G05
G00X1.8142Y-1.5257
M15
G01X1.8142Y-1.4746
M16
G05
T0
M30
