%TF.GenerationSoftware,KiCad,Pcbnew,(6.0.4-0)*%
%TF.CreationDate,2022-05-31T11:34:18+03:00*%
%TF.ProjectId,Supernova_Solder,53757065-726e-46f7-9661-5f536f6c6465,rev?*%
%TF.SameCoordinates,Original*%
%TF.FileFunction,Paste,Bot*%
%TF.FilePolarity,Positive*%
%FSLAX46Y46*%
G04 Gerber Fmt 4.6, Leading zero omitted, Abs format (unit mm)*
G04 Created by KiCad (PCBNEW (6.0.4-0)) date 2022-05-31 11:34:18*
%MOMM*%
%LPD*%
G01*
G04 APERTURE LIST*
G04 Aperture macros list*
%AMRoundRect*
0 Rectangle with rounded corners*
0 $1 Rounding radius*
0 $2 $3 $4 $5 $6 $7 $8 $9 X,Y pos of 4 corners*
0 Add a 4 corners polygon primitive as box body*
4,1,4,$2,$3,$4,$5,$6,$7,$8,$9,$2,$3,0*
0 Add four circle primitives for the rounded corners*
1,1,$1+$1,$2,$3*
1,1,$1+$1,$4,$5*
1,1,$1+$1,$6,$7*
1,1,$1+$1,$8,$9*
0 Add four rect primitives between the rounded corners*
20,1,$1+$1,$2,$3,$4,$5,0*
20,1,$1+$1,$4,$5,$6,$7,0*
20,1,$1+$1,$6,$7,$8,$9,0*
20,1,$1+$1,$8,$9,$2,$3,0*%
%AMRotRect*
0 Rectangle, with rotation*
0 The origin of the aperture is its center*
0 $1 length*
0 $2 width*
0 $3 Rotation angle, in degrees counterclockwise*
0 Add horizontal line*
21,1,$1,$2,0,0,$3*%
G04 Aperture macros list end*
%ADD10RoundRect,0.150000X-0.150000X0.587500X-0.150000X-0.587500X0.150000X-0.587500X0.150000X0.587500X0*%
%ADD11R,0.375000X0.500000*%
%ADD12R,0.300000X0.650000*%
%ADD13RoundRect,0.200000X0.275000X-0.200000X0.275000X0.200000X-0.275000X0.200000X-0.275000X-0.200000X0*%
%ADD14RoundRect,0.200000X-0.335876X-0.053033X-0.053033X-0.335876X0.335876X0.053033X0.053033X0.335876X0*%
%ADD15R,0.600000X1.450000*%
%ADD16R,0.300000X1.450000*%
%ADD17RoundRect,0.200000X0.335876X0.053033X0.053033X0.335876X-0.335876X-0.053033X-0.053033X-0.335876X0*%
%ADD18R,1.400000X1.200000*%
%ADD19RoundRect,0.225000X-0.335876X-0.017678X-0.017678X-0.335876X0.335876X0.017678X0.017678X0.335876X0*%
%ADD20RoundRect,0.225000X0.250000X-0.225000X0.250000X0.225000X-0.250000X0.225000X-0.250000X-0.225000X0*%
%ADD21RoundRect,0.218750X-0.381250X0.218750X-0.381250X-0.218750X0.381250X-0.218750X0.381250X0.218750X0*%
%ADD22RoundRect,0.200000X-0.275000X0.200000X-0.275000X-0.200000X0.275000X-0.200000X0.275000X0.200000X0*%
%ADD23RoundRect,0.225000X0.335876X0.017678X0.017678X0.335876X-0.335876X-0.017678X-0.017678X-0.335876X0*%
%ADD24RoundRect,0.225000X-0.017678X0.335876X-0.335876X0.017678X0.017678X-0.335876X0.335876X-0.017678X0*%
%ADD25RotRect,1.500000X0.550000X315.000000*%
%ADD26RotRect,1.500000X0.550000X225.000000*%
%ADD27RoundRect,0.225000X0.017678X-0.335876X0.335876X-0.017678X-0.017678X0.335876X-0.335876X0.017678X0*%
%ADD28RoundRect,0.225000X-0.250000X0.225000X-0.250000X-0.225000X0.250000X-0.225000X0.250000X0.225000X0*%
%ADD29RoundRect,0.243750X0.456250X-0.243750X0.456250X0.243750X-0.456250X0.243750X-0.456250X-0.243750X0*%
%ADD30R,1.700000X1.000000*%
G04 APERTURE END LIST*
D10*
%TO.C,KD18*%
X96681250Y-84787500D03*
X98581250Y-84787500D03*
X97631250Y-86662500D03*
%TD*%
D11*
%TO.C,U2*%
X148960150Y-40323400D03*
D12*
X149497650Y-40248400D03*
D11*
X150035150Y-40323400D03*
X150035150Y-42023400D03*
D12*
X149497650Y-42098400D03*
D11*
X148960150Y-42023400D03*
%TD*%
D10*
%TO.C,KD15*%
X277656250Y-65737500D03*
X279556250Y-65737500D03*
X278606250Y-67612500D03*
%TD*%
%TO.C,KD29*%
X215743750Y-103837500D03*
X217643750Y-103837500D03*
X216693750Y-105712500D03*
%TD*%
%TO.C,KD45*%
X289562500Y-141937500D03*
X291462500Y-141937500D03*
X290512500Y-143812500D03*
%TD*%
D13*
%TO.C,R1*%
X148227650Y-38975800D03*
X148227650Y-37325800D03*
%TD*%
D14*
%TO.C,R4*%
X321543087Y-96665637D03*
X322709813Y-97832363D03*
%TD*%
D10*
%TO.C,KD32*%
X358618750Y-139556250D03*
X360518750Y-139556250D03*
X359568750Y-141431250D03*
%TD*%
%TO.C,KD22*%
X249081250Y-84787500D03*
X250981250Y-84787500D03*
X250031250Y-86662500D03*
%TD*%
%TO.C,KD44*%
X241937500Y-141937500D03*
X243837500Y-141937500D03*
X242887500Y-143812500D03*
%TD*%
D15*
%TO.C,J1*%
X146768750Y-35362000D03*
X147568750Y-35362000D03*
D16*
X148768750Y-35362000D03*
X149768750Y-35362000D03*
X150268750Y-35362000D03*
X151268750Y-35362000D03*
D15*
X152468750Y-35362000D03*
X153268750Y-35362000D03*
X153268750Y-35362000D03*
X152468750Y-35362000D03*
D16*
X151768750Y-35362000D03*
X150768750Y-35362000D03*
X149268750Y-35362000D03*
X148268750Y-35362000D03*
D15*
X147568750Y-35362000D03*
X146768750Y-35362000D03*
%TD*%
D17*
%TO.C,R5*%
X321659813Y-98882363D03*
X320493087Y-97715637D03*
%TD*%
D10*
%TO.C,KD5*%
X234793750Y-41925000D03*
X236693750Y-41925000D03*
X235743750Y-43800000D03*
%TD*%
%TO.C,KD7*%
X318137500Y-41925000D03*
X320037500Y-41925000D03*
X319087500Y-43800000D03*
%TD*%
%TO.C,KD26*%
X101443750Y-103837500D03*
X103343750Y-103837500D03*
X102393750Y-105712500D03*
%TD*%
D18*
%TO.C,Y1*%
X338991850Y-94679400D03*
X341191850Y-94679400D03*
X341191850Y-96379400D03*
X338991850Y-96379400D03*
%TD*%
D19*
%TO.C,C3*%
X338611842Y-107249592D03*
X339707858Y-108345608D03*
%TD*%
D20*
%TO.C,C7*%
X343089050Y-96304400D03*
X343089050Y-94754400D03*
%TD*%
D10*
%TO.C,KD13*%
X201456250Y-65737500D03*
X203356250Y-65737500D03*
X202406250Y-67612500D03*
%TD*%
%TO.C,KD46*%
X339568750Y-139556250D03*
X341468750Y-139556250D03*
X340518750Y-141431250D03*
%TD*%
D21*
%TO.C,FB1*%
X154628450Y-37342300D03*
X154628450Y-39467300D03*
%TD*%
D10*
%TO.C,KD28*%
X177643750Y-103837500D03*
X179543750Y-103837500D03*
X178593750Y-105712500D03*
%TD*%
%TO.C,KD23*%
X284800000Y-84787500D03*
X286700000Y-84787500D03*
X285750000Y-86662500D03*
%TD*%
%TO.C,KD31*%
X301468750Y-103837500D03*
X303368750Y-103837500D03*
X302418750Y-105712500D03*
%TD*%
D13*
%TO.C,R3*%
X335299050Y-93916000D03*
X335299050Y-92266000D03*
%TD*%
D10*
%TO.C,KD43*%
X182406250Y-139556250D03*
X184306250Y-139556250D03*
X183356250Y-141431250D03*
%TD*%
%TO.C,KD11*%
X125256250Y-65737500D03*
X127156250Y-65737500D03*
X126206250Y-67612500D03*
%TD*%
%TO.C,KD35*%
X130018750Y-120506250D03*
X131918750Y-120506250D03*
X130968750Y-122381250D03*
%TD*%
D22*
%TO.C,R2*%
X151707450Y-37300400D03*
X151707450Y-38950400D03*
%TD*%
D10*
%TO.C,KD40*%
X357666250Y-122887500D03*
X359566250Y-122887500D03*
X358616250Y-124762500D03*
%TD*%
%TO.C,KD38*%
X244318750Y-120506250D03*
X246218750Y-120506250D03*
X245268750Y-122381250D03*
%TD*%
D23*
%TO.C,C5*%
X326169658Y-97830008D03*
X325073642Y-96733992D03*
%TD*%
D24*
%TO.C,C2*%
X328633458Y-112380392D03*
X327537442Y-113476408D03*
%TD*%
D10*
%TO.C,KD37*%
X206218750Y-120506250D03*
X208118750Y-120506250D03*
X207168750Y-122381250D03*
%TD*%
%TO.C,KD4*%
X191931250Y-41925000D03*
X193831250Y-41925000D03*
X192881250Y-43800000D03*
%TD*%
%TO.C,KD10*%
X87156250Y-65737500D03*
X89056250Y-65737500D03*
X88106250Y-67612500D03*
%TD*%
%TO.C,KD41*%
X56200000Y-141937500D03*
X58100000Y-141937500D03*
X57150000Y-143812500D03*
%TD*%
%TO.C,KD2*%
X106206250Y-41925000D03*
X108106250Y-41925000D03*
X107156250Y-43800000D03*
%TD*%
%TO.C,KD25*%
X60962500Y-103837500D03*
X62862500Y-103837500D03*
X61912500Y-105712500D03*
%TD*%
%TO.C,KD39*%
X268131250Y-120506250D03*
X270031250Y-120506250D03*
X269081250Y-122381250D03*
%TD*%
%TO.C,KD19*%
X134781250Y-84787500D03*
X136681250Y-84787500D03*
X135731250Y-86662500D03*
%TD*%
%TO.C,KD8*%
X358618750Y-41925000D03*
X360518750Y-41925000D03*
X359568750Y-43800000D03*
%TD*%
D24*
%TO.C,C1*%
X322918458Y-106665392D03*
X321822442Y-107761408D03*
%TD*%
D10*
%TO.C,KD42*%
X103825000Y-141937500D03*
X105725000Y-141937500D03*
X104775000Y-143812500D03*
%TD*%
D25*
%TO.C,U1*%
X324198314Y-103064918D03*
X324764000Y-102499233D03*
X325329685Y-101933548D03*
X325895370Y-101367862D03*
X326461056Y-100802177D03*
X327026741Y-100236491D03*
X327592427Y-99670806D03*
X328158112Y-99105120D03*
X328723798Y-98539435D03*
X329289483Y-97973750D03*
X329855168Y-97408064D03*
D26*
X332259332Y-97408064D03*
X332825017Y-97973750D03*
X333390702Y-98539435D03*
X333956388Y-99105120D03*
X334522073Y-99670806D03*
X335087759Y-100236491D03*
X335653444Y-100802177D03*
X336219130Y-101367862D03*
X336784815Y-101933548D03*
X337350500Y-102499233D03*
X337916186Y-103064918D03*
D25*
X337916186Y-105469082D03*
X337350500Y-106034767D03*
X336784815Y-106600452D03*
X336219130Y-107166138D03*
X335653444Y-107731823D03*
X335087759Y-108297509D03*
X334522073Y-108863194D03*
X333956388Y-109428880D03*
X333390702Y-109994565D03*
X332825017Y-110560250D03*
X332259332Y-111125936D03*
D26*
X329855168Y-111125936D03*
X329289483Y-110560250D03*
X328723798Y-109994565D03*
X328158112Y-109428880D03*
X327592427Y-108863194D03*
X327026741Y-108297509D03*
X326461056Y-107731823D03*
X325895370Y-107166138D03*
X325329685Y-106600452D03*
X324764000Y-106034767D03*
X324198314Y-105469082D03*
%TD*%
D10*
%TO.C,KD14*%
X239556250Y-65737500D03*
X241456250Y-65737500D03*
X240506250Y-67612500D03*
%TD*%
%TO.C,KD9*%
X49056250Y-65737500D03*
X50956250Y-65737500D03*
X50006250Y-67612500D03*
%TD*%
D27*
%TO.C,C4*%
X334700242Y-97372808D03*
X335796258Y-96276792D03*
%TD*%
D10*
%TO.C,KD12*%
X163356250Y-65737500D03*
X165256250Y-65737500D03*
X164306250Y-67612500D03*
%TD*%
%TO.C,KD30*%
X253843750Y-103837500D03*
X255743750Y-103837500D03*
X254793750Y-105712500D03*
%TD*%
D14*
%TO.C,R6*%
X333191687Y-112649837D03*
X334358413Y-113816563D03*
%TD*%
D10*
%TO.C,KD27*%
X139543750Y-103837500D03*
X141443750Y-103837500D03*
X140493750Y-105712500D03*
%TD*%
%TO.C,KD34*%
X91918750Y-120506250D03*
X93818750Y-120506250D03*
X92868750Y-122381250D03*
%TD*%
%TO.C,KD36*%
X168118750Y-120506250D03*
X170018750Y-120506250D03*
X169068750Y-122381250D03*
%TD*%
%TO.C,KD20*%
X172881250Y-84787500D03*
X174781250Y-84787500D03*
X173831250Y-86662500D03*
%TD*%
D28*
%TO.C,C8*%
X337229450Y-94754400D03*
X337229450Y-96304400D03*
%TD*%
D10*
%TO.C,KD16*%
X332266250Y-65737500D03*
X334166250Y-65737500D03*
X333216250Y-67612500D03*
%TD*%
%TO.C,KD24*%
X339568750Y-82406250D03*
X341468750Y-82406250D03*
X340518750Y-84281250D03*
%TD*%
D29*
%TO.C,F1*%
X146373450Y-39291500D03*
X146373450Y-37416500D03*
%TD*%
D30*
%TO.C,SW1*%
X337368750Y-88587500D03*
X343668750Y-88587500D03*
X337368750Y-92387500D03*
X343668750Y-92387500D03*
%TD*%
D10*
%TO.C,KD6*%
X277656250Y-41925000D03*
X279556250Y-41925000D03*
X278606250Y-43800000D03*
%TD*%
%TO.C,KD17*%
X56200000Y-84787500D03*
X58100000Y-84787500D03*
X57150000Y-86662500D03*
%TD*%
%TO.C,KD21*%
X210981250Y-84787500D03*
X212881250Y-84787500D03*
X211931250Y-86662500D03*
%TD*%
%TO.C,KD1*%
X58581250Y-41925000D03*
X60481250Y-41925000D03*
X59531250Y-43800000D03*
%TD*%
%TO.C,KD33*%
X53818750Y-122887500D03*
X55718750Y-122887500D03*
X54768750Y-124762500D03*
%TD*%
%TO.C,KD3*%
X141925000Y-41925000D03*
X143825000Y-41925000D03*
X142875000Y-43800000D03*
%TD*%
D23*
%TO.C,C6*%
X325483858Y-99277808D03*
X324387842Y-98181792D03*
%TD*%
M02*
