M48
; DRILL file {KiCad (6.0.4-0)} date 2022 May 31, Tuesday 11:34:11
; FORMAT={-:-/ absolute / inch / decimal}
; #@! TF.CreationDate,2022-05-31T11:34:11+03:00
; #@! TF.GenerationSoftware,Kicad,Pcbnew,(6.0.4-0)
; #@! TF.FileFunction,Plated,1,2,PTH
FMAT,2
INCH
; #@! TA.AperFunction,Plated,PTH,ViaDrill
T1C0.0157
; #@! TA.AperFunction,Plated,PTH,ComponentDrill
T2C0.0236
; #@! TA.AperFunction,Plated,PTH,ComponentDrill
T3C0.0394
; #@! TA.AperFunction,Plated,PTH,ComponentDrill
T4C0.0591
%
G90
G05
T1
X1.2656Y-1.2188
X1.2656Y-1.5
X1.2656Y-1.7188
X1.2656Y-1.9688
X1.2656Y-2.2188
X1.2656Y-2.4688
X1.2656Y-2.7188
X1.2656Y-2.9688
X1.2656Y-3.2188
X1.2656Y-3.4688
X1.2656Y-3.7188
X1.2656Y-3.9688
X1.2656Y-4.2188
X1.2656Y-4.4688
X1.2656Y-4.7188
X1.2656Y-4.9688
X1.2656Y-5.2188
X1.2656Y-5.4688
X1.2656Y-5.7188
X1.3125Y-1.1719
X1.3125Y-5.7656
X1.4888Y-4.355
X1.5625Y-1.1719
X1.5625Y-5.7656
X1.5938Y-1.7
X1.5938Y-1.885
X1.7388Y-2.025
X1.8125Y-1.1719
X1.8125Y-5.7656
X1.9888Y-2.125
X2.0625Y-1.1719
X2.0625Y-5.7656
X2.2388Y-1.885
X2.3125Y-1.1719
X2.3125Y-5.7656
X2.5625Y-1.1719
X2.5625Y-5.7656
X2.6313Y-4.3625
X2.7188Y-2.195
X2.8125Y-1.1719
X2.8125Y-5.7656
X2.9087Y-4.74
X3.0625Y-1.1719
X3.0625Y-5.7656
X3.0826Y-2.9183
X3.1313Y-4.3925
X3.3125Y-1.1719
X3.3125Y-5.7656
X3.4688Y-1.875
X3.4888Y-2.125
X3.5437Y-4.245
X3.5625Y-1.1719
X3.5625Y-5.7656
X3.8125Y-1.1719
X3.8125Y-5.7656
X4.0625Y-1.1719
X4.0625Y-5.7656
X4.2088Y-2.235
X4.2188Y-1.875
X4.2938Y-4.245
X4.3125Y-1.1719
X4.3125Y-5.7656
X4.5187Y-4.885
X4.5187Y-4.975
X4.5625Y-1.1719
X4.5938Y-3.0
X4.7812Y-4.0312
X4.8125Y-1.1719
X4.8125Y-5.7656
X4.9688Y-1.875
X4.9887Y-2.125
X5.0438Y-4.245
X5.0625Y-1.1719
X5.0625Y-5.7656
X5.3125Y-1.1719
X5.5625Y-1.1719
X5.5625Y-5.7656
X5.6987Y-2.265
X5.6997Y-1.513
X5.7188Y-1.685
X5.7188Y-1.7525
X5.7188Y-1.875
X5.7938Y-4.245
X5.7988Y-1.6505
X5.8125Y-5.7656
X5.8157Y-1.587
X5.8389Y-1.8249
X5.8687Y-4.8845
X5.9062Y-4.7812
X6.0297Y-1.533
X6.0625Y-5.7656
X6.0938Y-1.685
X6.0938Y-1.7525
X6.0938Y-2.9062
X6.1387Y-1.875
X6.2787Y-5.43
X6.2812Y-3.9375
X6.3125Y-1.1719
X6.3487Y-4.995
X6.4688Y-1.875
X6.4688Y-5.075
X6.4887Y-2.125
X6.5438Y-4.245
X6.5625Y-1.1719
X6.5625Y-5.7656
X6.8125Y-1.1719
X6.8125Y-5.7656
X7.0625Y-1.1719
X7.0625Y-5.7656
X7.2188Y-1.875
X7.2188Y-2.225
X7.2938Y-4.245
X7.3125Y-1.1719
X7.3125Y-5.7656
X7.4062Y-4.5
X7.4062Y-5.0625
X7.4062Y-5.5312
X7.5625Y-1.1719
X7.5625Y-5.7656
X7.5938Y-2.9062
X7.7437Y-5.05
X7.7812Y-3.9375
X7.8125Y-1.1719
X7.8125Y-5.7656
X7.9887Y-2.125
X8.0437Y-4.245
X8.0625Y-1.1719
X8.0625Y-5.7656
X8.0687Y-1.875
X8.1487Y-5.525
X8.3125Y-1.1719
X8.3125Y-5.7656
X8.4537Y-5.065
X8.5312Y-5.3438
X8.5625Y-1.1719
X8.5625Y-5.7656
X8.7188Y-2.285
X8.7188Y-5.1562
X8.7287Y-1.875
X8.7937Y-4.245
X8.8125Y-1.1719
X8.8125Y-5.7656
X9.0625Y-1.1719
X9.0938Y-2.9062
X9.2188Y-5.06
X9.2812Y-3.9375
X9.3125Y-1.1719
X9.3125Y-5.7656
X9.4187Y-5.1
X9.4688Y-1.875
X9.4887Y-2.125
X9.5625Y-1.1719
X9.5625Y-5.7656
X9.8125Y-1.1719
X9.8125Y-5.7656
X10.0625Y-1.1719
X10.0625Y-5.7656
X10.1312Y-5.1325
X10.2188Y-1.875
X10.2188Y-2.285
X10.3125Y-1.1719
X10.3125Y-5.7656
X10.4087Y-4.74
X10.5Y-5.1562
X10.5Y-5.5312
X10.5288Y-2.945
X10.5625Y-1.1719
X10.5625Y-5.7656
X10.6479Y-4.6585
X10.7955Y-4.6388
X10.7988Y-4.932
X10.8087Y-4.512
X10.8125Y-1.1719
X10.8125Y-5.7656
X10.8438Y-4.882
X10.9488Y-4.19
X10.9688Y-1.875
X10.9887Y-2.125
X11.0537Y-5.012
X11.0625Y-1.1719
X11.0625Y-5.7656
X11.0637Y-4.922
X11.1687Y-4.742
X11.2703Y-4.2722
X11.2739Y-4.045
X11.3125Y-1.1719
X11.3125Y-5.7656
X11.4254Y-4.5404
X11.4387Y-4.305
X11.5089Y-3.2541
X11.5384Y-3.6711
X11.5625Y-1.1719
X11.5625Y-5.7656
X11.7037Y-4.495
X11.8087Y-4.922
X11.8125Y-1.1719
X11.8125Y-5.7656
X11.8187Y-5.012
X12.0437Y-4.8805
X12.0488Y-4.5
X12.0625Y-1.1719
X12.0625Y-5.7656
X12.0787Y-4.915
X12.1587Y-1.875
X12.1875Y-3.9384
X12.2387Y-5.195
X12.2662Y-5.2375
X12.3125Y-1.1719
X12.3125Y-5.7656
X12.3387Y-3.725
X12.3835Y-2.165
X12.3987Y-3.785
X12.4238Y-4.5
X12.4287Y-1.895
X12.4287Y-3.275
X12.4383Y-2.245
X12.4488Y-2.69
X12.4688Y-2.205
X12.4688Y-2.8125
X12.4688Y-3.5625
X12.4688Y-3.8
X12.4787Y-4.885
X12.5307Y-3.831
X12.5625Y-1.1719
X12.5625Y-5.7656
X12.5687Y-4.005
X12.5687Y-5.625
X12.6037Y-2.291
X12.6037Y-2.495
X12.6037Y-2.751
X12.6037Y-3.177
X12.6037Y-3.491
X12.6067Y-1.801
X12.6348Y-4.189
X12.6387Y-3.755
X12.6562Y-5.5312
X12.6587Y-4.085
X12.6937Y-4.445
X12.6988Y-2.5881
X12.6988Y-2.905
X12.6988Y-3.035
X12.7016Y-3.951
X12.7018Y-4.159
X12.7088Y-4.285
X12.7188Y-2.755
X12.7287Y-2.87
X12.7438Y-3.77
X12.75Y-2.8125
X12.7538Y-3.335
X12.7687Y-4.575
X12.7698Y-2.69
X12.7788Y-3.52
X12.8087Y-4.12
X12.8125Y-1.1719
X12.8125Y-5.7656
X12.8439Y-4.1522
X12.8607Y-3.872
X12.8788Y-4.185
X12.8837Y-4.0
X12.8957Y-3.833
X12.8959Y-4.0864
X12.8967Y-3.44
X12.9138Y-4.865
X12.9337Y-2.87
X12.9387Y-4.515
X12.9637Y-2.905
X12.9737Y-4.155
X12.9748Y-4.46
X12.9838Y-4.055
X13.0328Y-4.419
X13.0578Y-3.951
X13.0625Y-1.1719
X13.0625Y-5.7656
X13.0627Y-3.787
X13.0787Y-4.055
X13.0787Y-4.155
X13.0838Y-1.965
X13.0838Y-3.715
X13.1288Y-3.965
X13.1738Y-3.51
X13.1787Y-4.62
X13.2207Y-3.743
X13.2468Y-4.14
X13.3067Y-4.94
X13.3125Y-1.1719
X13.3125Y-5.7656
X13.3187Y-3.085
X13.325Y-2.7687
X13.3287Y-2.595
X13.3387Y-4.105
X13.3887Y-2.77
X13.3887Y-2.855
X13.4287Y-4.195
X13.4627Y-3.675
X13.4915Y-2.595
X13.5Y-2.7188
X13.5587Y-3.701
X13.5625Y-1.1719
X13.5625Y-5.7656
X13.5887Y-3.941
X13.5938Y-1.6875
X13.5938Y-1.875
X13.5987Y-3.689
X13.6875Y-3.5625
X13.6875Y-5.0625
X13.8125Y-1.1719
X13.8125Y-5.7656
X13.8487Y-1.965
X13.8987Y-4.175
X13.9287Y-1.965
X13.9688Y-3.4688
X13.9688Y-4.3125
X14.0625Y-1.1719
X14.0625Y-5.7656
X14.0787Y-4.125
X14.1188Y-5.085
X14.3125Y-1.1719
X14.3125Y-5.7656
X14.3688Y-1.875
X14.5625Y-1.1719
X14.5625Y-5.7656
X14.8125Y-1.1719
X14.8125Y-5.7656
X14.8594Y-1.2188
X14.8594Y-1.4688
X14.8594Y-1.7188
X14.8594Y-1.9688
X14.8594Y-2.2188
X14.8594Y-2.4688
X14.8594Y-2.7188
X14.8594Y-2.9688
X14.8594Y-3.2188
X14.8594Y-3.4688
X14.8594Y-3.7188
X14.8594Y-3.9688
X14.8594Y-4.2188
X14.8594Y-4.4688
X14.8594Y-4.7188
X14.8594Y-4.9688
X14.8594Y-5.2188
X14.8594Y-5.4688
X14.8594Y-5.7188
T3
X1.4953Y-1.2234
X1.4953Y-1.7943
X1.5938Y-1.7943
X1.6922Y-1.2234
X1.6922Y-1.7943
X12.826Y-3.6923
X12.8967Y-3.6216
X12.8967Y-3.763
X12.9675Y-3.5509
X12.9675Y-3.6923
X13.0382Y-3.6216
T4
X1.4437Y-1.4
X1.4437Y-2.3375
X1.5375Y-3.8375
X1.5375Y-4.5875
X1.6312Y-3.0875
X1.6312Y-5.3375
X1.6937Y-1.3
X1.6937Y-2.2375
X1.725Y-3.8375
X1.7875Y-3.7375
X1.7875Y-4.4875
X1.8812Y-2.9875
X1.8812Y-5.2375
X1.9125Y-4.5875
X1.975Y-3.7375
X2.1625Y-4.4875
X2.1938Y-2.3375
X2.3813Y-4.5875
X2.4438Y-2.2375
X2.5688Y-3.0875
X2.5688Y-5.3375
X2.6313Y-4.4875
X2.7563Y-3.8375
X2.8188Y-2.9875
X2.8188Y-5.2375
X2.9438Y-1.4
X2.9438Y-2.3375
X3.0063Y-3.7375
X3.1313Y-4.5875
X3.1938Y-1.3
X3.1938Y-2.2375
X3.3188Y-3.0875
X3.3813Y-4.4875
X3.5063Y-3.8375
X3.5063Y-5.3375
X3.5688Y-2.9875
X3.6938Y-1.4
X3.6938Y-2.3375
X3.7563Y-3.7375
X3.7563Y-5.2375
X3.8813Y-4.5875
X3.9438Y-1.3
X3.9438Y-2.2375
X4.0687Y-3.0875
X4.1312Y-4.4875
X4.2562Y-3.8375
X4.3187Y-2.9875
X4.4437Y-1.4
X4.4437Y-2.3375
X4.4437Y-5.3375
X4.5062Y-3.7375
X4.6312Y-4.5875
X4.6937Y-1.3
X4.6937Y-2.2375
X4.6937Y-5.2375
X4.8187Y-3.0875
X4.8812Y-4.4875
X5.0062Y-3.8375
X5.0687Y-2.9875
X5.1937Y-1.4
X5.1937Y-2.3375
X5.2562Y-3.7375
X5.3812Y-4.5875
X5.4437Y-1.3
X5.4437Y-2.2375
X5.5687Y-3.0875
X5.6312Y-4.4875
X5.6625Y-5.3375
X5.7562Y-3.8375
X5.8187Y-2.9875
X5.9125Y-5.2375
X5.9437Y-2.3375
X6.0062Y-3.7375
X6.1312Y-4.5875
X6.1937Y-2.2375
X6.3187Y-1.4
X6.3187Y-3.0875
X6.3812Y-4.4875
X6.5062Y-3.8375
X6.5687Y-1.3
X6.5687Y-2.9875
X6.6937Y-2.3375
X6.6937Y-5.3375
X6.7562Y-3.7375
X6.8812Y-4.5875
X6.9437Y-2.2375
X6.9437Y-5.2375
X7.0687Y-1.4
X7.0687Y-3.0875
X7.1312Y-4.4875
X7.2562Y-3.8375
X7.3187Y-1.3
X7.3187Y-2.9875
X7.4437Y-2.3375
X7.5062Y-3.7375
X7.5375Y-5.3375
X7.6312Y-4.5875
X7.6937Y-2.2375
X7.7875Y-5.2375
X7.8187Y-1.4
X7.8187Y-3.0875
X7.8812Y-4.4875
X8.0062Y-3.8375
X8.0687Y-1.3
X8.0687Y-2.9875
X8.1937Y-2.3375
X8.2562Y-3.7375
X8.3812Y-4.5875
X8.4437Y-2.2375
X8.5687Y-1.4
X8.5687Y-3.0875
X8.6312Y-4.4875
X8.7562Y-3.8375
X8.8187Y-1.3
X8.8187Y-2.9875
X8.9437Y-2.3375
X8.9437Y-5.3375
X9.0062Y-3.7375
X9.1312Y-4.5875
X9.1937Y-2.2375
X9.1937Y-5.2375
X9.3187Y-3.0875
X9.3812Y-4.4875
X9.5062Y-3.8375
X9.5687Y-2.9875
X9.6937Y-1.4
X9.6937Y-2.3375
X9.7562Y-3.7375
X9.8812Y-4.5875
X9.8812Y-5.3375
X9.9437Y-1.3
X9.9437Y-2.2375
X10.0687Y-3.0875
X10.1312Y-4.4875
X10.1312Y-5.2375
X10.2562Y-3.8375
X10.3187Y-2.9875
X10.4437Y-1.4
X10.4437Y-2.3375
X10.5062Y-3.7375
X10.6937Y-1.3
X10.6937Y-2.2375
X10.8187Y-3.0875
X10.8187Y-5.3375
X10.9125Y-4.5875
X11.0062Y-3.8375
X11.0687Y-2.9875
X11.0687Y-5.2375
X11.1625Y-4.4875
X11.1937Y-1.4
X11.1937Y-2.3375
X11.2562Y-3.7375
X11.2875Y-4.5875
X11.4437Y-1.3
X11.4437Y-2.2375
X11.475Y-3.8375
X11.5375Y-4.4875
X11.5687Y-2.3375
X11.725Y-3.7375
X11.7562Y-5.3375
X11.8063Y-3.3875
X11.8187Y-2.2375
X11.85Y-3.4627
X11.9437Y-1.4
X11.9437Y-2.3375
X11.9437Y-4.5875
X12.0062Y-5.2375
X12.0563Y-3.2875
X12.1Y-3.3627
X12.1937Y-1.3
X12.1937Y-2.2375
X12.1937Y-4.4875
X12.8812Y-1.4
X12.8812Y-2.3375
X12.8812Y-3.0875
X12.8812Y-5.3375
X13.1312Y-1.3
X13.1312Y-2.2375
X13.1312Y-2.9875
X13.1312Y-5.2375
X13.6312Y-1.4
X13.6312Y-2.3375
X13.6312Y-3.0875
X13.6312Y-4.5875
X13.6312Y-5.3375
X13.8812Y-1.3
X13.8812Y-2.2375
X13.8812Y-2.9875
X13.8812Y-4.4875
X13.8812Y-5.2375
X14.3812Y-1.4
X14.3812Y-2.3375
X14.3812Y-3.0875
X14.3812Y-5.3375
X14.6312Y-1.3
X14.6312Y-2.2375
X14.6312Y-2.9875
X14.6312Y-5.2375
T2
G00X5.7362Y-1.1798
M15
G01X5.7362Y-1.2034
M16
G05
G00X5.7362Y-1.3345
M15
G01X5.7362Y-1.3778
M16
G05
G00X6.0763Y-1.1798
M15
G01X6.0763Y-1.2034
M16
G05
G00X6.0763Y-1.3345
M15
G01X6.0763Y-1.3778
M16
G05
T4
G00X1.3733Y-1.5246
M15
G01X1.3733Y-1.4734
M16
G05
G00X1.8142Y-1.5246
M15
G01X1.8142Y-1.4734
M16
G05
T0
M30
