M48
; DRILL file {KiCad (6.0.4-0)} date 2022 May 31, Tuesday 11:34:11
; FORMAT={-:-/ absolute / inch / decimal}
; #@! TF.CreationDate,2022-05-31T11:34:11+03:00
; #@! TF.GenerationSoftware,Kicad,Pcbnew,(6.0.4-0)
; #@! TF.FileFunction,NonPlated,1,2,NPTH
FMAT,2
INCH
; #@! TA.AperFunction,NonPlated,NPTH,ComponentDrill
T1C0.0256
; #@! TA.AperFunction,NonPlated,NPTH,ComponentDrill
T2C0.0669
; #@! TA.AperFunction,NonPlated,NPTH,ComponentDrill
T3C0.1200
; #@! TA.AperFunction,NonPlated,NPTH,ComponentDrill
T4C0.1201
; #@! TA.AperFunction,NonPlated,NPTH,ComponentDrill
T5C0.1570
; #@! TA.AperFunction,NonPlated,NPTH,ComponentDrill
T6C0.1575
%
G90
G05
T1
X5.7925Y-1.3353
X6.02Y-1.3353
T2
X1.3938Y-1.5
X1.3938Y-2.4375
X1.4875Y-3.9375
X1.4875Y-4.6875
X1.5813Y-3.1875
X1.5813Y-5.4375
X1.675Y-3.9375
X1.7937Y-1.5
X1.7937Y-2.4375
X1.8625Y-4.6875
X1.8875Y-3.9375
X1.8875Y-4.6875
X1.9812Y-3.1875
X1.9812Y-5.4375
X2.075Y-3.9375
X2.1437Y-2.4375
X2.2625Y-4.6875
X2.3312Y-4.6875
X2.5187Y-3.1875
X2.5187Y-5.4375
X2.5437Y-2.4375
X2.7062Y-3.9375
X2.7312Y-4.6875
X2.8937Y-1.5
X2.8937Y-2.4375
X2.9187Y-3.1875
X2.9187Y-5.4375
X3.0812Y-4.6875
X3.1062Y-3.9375
X3.2687Y-3.1875
X3.2937Y-1.5
X3.2937Y-2.4375
X3.4562Y-3.9375
X3.4562Y-5.4375
X3.4812Y-4.6875
X3.6437Y-1.5
X3.6437Y-2.4375
X3.6687Y-3.1875
X3.8312Y-4.6875
X3.8562Y-3.9375
X3.8562Y-5.4375
X4.0187Y-3.1875
X4.0438Y-1.5
X4.0438Y-2.4375
X4.2062Y-3.9375
X4.2313Y-4.6875
X4.3937Y-1.5
X4.3937Y-2.4375
X4.3937Y-5.4375
X4.4188Y-3.1875
X4.5812Y-4.6875
X4.6063Y-3.9375
X4.7687Y-3.1875
X4.7938Y-1.5
X4.7938Y-2.4375
X4.7938Y-5.4375
X4.9562Y-3.9375
X4.9813Y-4.6875
X5.1437Y-1.5
X5.1437Y-2.4375
X5.1688Y-3.1875
X5.3312Y-4.6875
X5.3563Y-3.9375
X5.5187Y-3.1875
X5.5438Y-1.5
X5.5438Y-2.4375
X5.6125Y-5.4375
X5.7062Y-3.9375
X5.7313Y-4.6875
X5.8937Y-2.4375
X5.9188Y-3.1875
X6.0125Y-5.4375
X6.0812Y-4.6875
X6.1063Y-3.9375
X6.2687Y-1.5
X6.2687Y-3.1875
X6.2938Y-2.4375
X6.4562Y-3.9375
X6.4813Y-4.6875
X6.6437Y-2.4375
X6.6437Y-5.4375
X6.6688Y-1.5
X6.6688Y-3.1875
X6.8312Y-4.6875
X6.8563Y-3.9375
X7.0187Y-1.5
X7.0187Y-3.1875
X7.0438Y-2.4375
X7.0438Y-5.4375
X7.2062Y-3.9375
X7.2313Y-4.6875
X7.3937Y-2.4375
X7.4188Y-1.5
X7.4188Y-3.1875
X7.4875Y-5.4375
X7.5812Y-4.6875
X7.6063Y-3.9375
X7.7687Y-1.5
X7.7687Y-3.1875
X7.7938Y-2.4375
X7.8875Y-5.4375
X7.9562Y-3.9375
X7.9813Y-4.6875
X8.1437Y-2.4375
X8.1687Y-1.5
X8.1687Y-3.1875
X8.3312Y-4.6875
X8.3562Y-3.9375
X8.5187Y-1.5
X8.5187Y-3.1875
X8.5437Y-2.4375
X8.7062Y-3.9375
X8.7312Y-4.6875
X8.8937Y-2.4375
X8.8937Y-5.4375
X8.9187Y-1.5
X8.9187Y-3.1875
X9.0812Y-4.6875
X9.1062Y-3.9375
X9.2687Y-3.1875
X9.2937Y-2.4375
X9.2937Y-5.4375
X9.4562Y-3.9375
X9.4812Y-4.6875
X9.6437Y-1.5
X9.6437Y-2.4375
X9.6687Y-3.1875
X9.8312Y-4.6875
X9.8312Y-5.4375
X9.8562Y-3.9375
X10.0187Y-3.1875
X10.0437Y-1.5
X10.0437Y-2.4375
X10.2062Y-3.9375
X10.2312Y-4.6875
X10.2312Y-5.4375
X10.3937Y-1.5
X10.3937Y-2.4375
X10.4187Y-3.1875
X10.6062Y-3.9375
X10.7687Y-3.1875
X10.7687Y-5.4375
X10.7937Y-1.5
X10.7937Y-2.4375
X10.8625Y-4.6875
X10.9562Y-3.9375
X11.1437Y-1.5
X11.1437Y-2.4375
X11.1687Y-3.1875
X11.1687Y-5.4375
X11.2375Y-4.6875
X11.2625Y-4.6875
X11.3562Y-3.9375
X11.425Y-3.9375
X11.5187Y-2.4375
X11.5437Y-1.5
X11.5437Y-2.4375
X11.6375Y-4.6875
X11.7062Y-3.1875
X11.7062Y-5.4375
X11.8Y-3.5627
X11.825Y-3.9375
X11.8937Y-1.5
X11.8937Y-2.4375
X11.8937Y-4.6875
X11.9187Y-2.4375
X12.1062Y-3.1875
X12.1062Y-5.4375
X12.2Y-3.5627
X12.2937Y-1.5
X12.2937Y-2.4375
X12.2937Y-4.6875
X12.8312Y-1.5
X12.8312Y-2.4375
X12.8312Y-3.1875
X12.8312Y-5.4375
X13.2312Y-1.5
X13.2312Y-2.4375
X13.2312Y-3.1875
X13.2312Y-5.4375
X13.5812Y-1.5
X13.5812Y-2.4375
X13.5812Y-3.1875
X13.5812Y-4.6875
X13.5812Y-5.4375
X13.9812Y-1.5
X13.9812Y-2.4375
X13.9812Y-3.1875
X13.9812Y-4.6875
X13.9812Y-5.4375
X14.3312Y-1.5
X14.3312Y-2.4375
X14.3312Y-3.1875
X14.3312Y-5.4375
X14.7312Y-1.5
X14.7312Y-2.4375
X14.7312Y-3.1875
X14.7312Y-5.4375
T3
X5.3425Y-5.7125
X6.2825Y-5.7125
X7.2175Y-5.7125
X8.1575Y-5.7125
X10.9675Y-4.9625
X11.155Y-4.2125
X11.2487Y-2.1625
X11.9075Y-4.9625
X12.095Y-4.2125
X12.1887Y-2.1625
T4
X1.594Y-4.4119
X2.531Y-4.4119
X4.5938Y-5.7131
X9.0938Y-5.7131
X11.7244Y-3.0942
X11.7244Y-4.0312
T5
X5.3425Y-5.1125
X6.2825Y-5.1125
X7.2175Y-5.1125
X8.1575Y-5.1125
X10.9675Y-4.3625
X11.155Y-3.6125
X11.2487Y-2.7625
X11.9075Y-4.3625
X12.095Y-3.6125
X12.1887Y-2.7625
T6
X1.5938Y-1.5
X1.5938Y-2.4375
X1.594Y-5.0119
X1.6875Y-3.9375
X1.6875Y-4.6875
X1.7812Y-3.1875
X1.7812Y-5.4375
X1.875Y-3.9375
X2.0625Y-4.6875
X2.3438Y-2.4375
X2.531Y-5.0119
X2.5312Y-4.6875
X2.7188Y-3.1875
X2.7188Y-5.4375
X2.9062Y-3.9375
X3.0938Y-1.5
X3.0938Y-2.4375
X3.2812Y-4.6875
X3.4688Y-3.1875
X3.6562Y-3.9375
X3.6562Y-5.4375
X3.8438Y-1.5
X3.8438Y-2.4375
X4.0312Y-4.6875
X4.2188Y-3.1875
X4.4062Y-3.9375
X4.5938Y-1.5
X4.5938Y-2.4375
X4.5938Y-5.1131
X4.5938Y-5.4375
X4.7812Y-4.6875
X4.9688Y-3.1875
X5.1562Y-3.9375
X5.3438Y-1.5
X5.3438Y-2.4375
X5.5312Y-4.6875
X5.7188Y-3.1875
X5.8125Y-5.4375
X5.9062Y-3.9375
X6.0938Y-2.4375
X6.2812Y-4.6875
X6.4688Y-1.5
X6.4688Y-3.1875
X6.6562Y-3.9375
X6.8438Y-2.4375
X6.8438Y-5.4375
X7.0312Y-4.6875
X7.2188Y-1.5
X7.2188Y-3.1875
X7.4062Y-3.9375
X7.5938Y-2.4375
X7.6875Y-5.4375
X7.7812Y-4.6875
X7.9688Y-1.5
X7.9688Y-3.1875
X8.1562Y-3.9375
X8.3438Y-2.4375
X8.5312Y-4.6875
X8.7188Y-1.5
X8.7188Y-3.1875
X8.9062Y-3.9375
X9.0938Y-2.4375
X9.0938Y-5.1131
X9.0938Y-5.4375
X9.2812Y-4.6875
X9.4688Y-3.1875
X9.6562Y-3.9375
X9.8438Y-1.5
X9.8438Y-2.4375
X10.0312Y-4.6875
X10.0312Y-5.4375
X10.2188Y-3.1875
X10.4062Y-3.9375
X10.5938Y-1.5
X10.5938Y-2.4375
X10.9688Y-3.1875
X10.9688Y-5.4375
X11.0625Y-4.6875
X11.1562Y-3.9375
X11.3438Y-1.5
X11.3438Y-2.4375
X11.4375Y-4.6875
X11.625Y-3.9375
X11.7188Y-2.4375
X11.9062Y-3.1875
X11.9062Y-5.4375
X12.0Y-3.5627
X12.0938Y-1.5
X12.0938Y-2.4375
X12.0938Y-4.6875
X12.3244Y-3.0942
X12.3244Y-4.0312
X13.0312Y-1.5
X13.0312Y-2.4375
X13.0312Y-3.1875
X13.0312Y-5.4375
X13.7812Y-1.5
X13.7812Y-2.4375
X13.7812Y-3.1875
X13.7812Y-4.6875
X13.7812Y-5.4375
X14.5312Y-1.5
X14.5312Y-2.4375
X14.5312Y-3.1875
X14.5312Y-5.4375
T0
M30
